<svg width="2756" height="1080" viewBox="0 0 2756 1080" fill="none" xmlns="http://www.w3.org/2000/svg">
<path d="M680 880L540 920L400 880L300 820L240 680L280 520L400 320L540 160L680 320L800 520L840 680L780 820L680 880Z" fill="url(#paint0_linear_52_172)"/>
<path d="M560 400L400 320L560 240L680 320L560 400Z" fill="white" fill-opacity="0.2"/>
<path d="M560 240L540 160L400 320L560 240Z" fill="white" fill-opacity="0.1"/>
<path d="M680 320L540 160L560 240L680 320Z" fill="white" fill-opacity="0.3"/>
<path d="M560 400L280 520L400.5 320L560 400Z" fill="white" fill-opacity="0.05"/>
<path d="M680 640L560 400L400 720H560L680 640Z" fill="white" fill-opacity="0.3"/>
<path d="M240 680L280 520L560 400L240 680Z" fill="white" fill-opacity="0.21"/>
<path d="M800 520L680 480L560 400L680 320L800 520Z" fill="white" fill-opacity="0.4"/>
<path d="M680 480L560 400L680 640V480Z" fill="white" fill-opacity="0.5"/>
<path d="M800 520L680 480V640L840 680L800 520Z" fill="white" fill-opacity="0.45"/>
<path d="M540 920L560 840L680 880L540 920Z" fill="white" fill-opacity="0.16"/>
<path d="M720 800L560 840L680 880L780 820L720 800Z" fill="white" fill-opacity="0.1"/>
<path d="M720 800L680 640L840 680L780 820L720 800Z" fill="white" fill-opacity="0.3"/>
<path d="M400 720L240 680L560 400L400 720Z" fill="white" fill-opacity="0.15"/>
<path d="M300 820L400 720L240 680L300 820Z" fill="white" fill-opacity="0.2"/>
<path d="M560 840L480 800L400 880L540 920L560 840Z" fill="white" fill-opacity="0.2"/>
<path d="M480 800L400 720L300 820L400 880L480 800Z" fill="white" fill-opacity="0.1"/>
<path d="M480 800L560 840V780V720H400L480 800Z" fill="white" fill-opacity="0.35"/>
<path d="M680 640L560 720V840L720 800L680 640Z" fill="white" fill-opacity="0.21"/>
<g filter="url(#filter0_bd_52_172)">
<path d="M504.719 407.694C504.326 396.383 513.389 387 524.706 387H555.294C566.611 387 575.674 396.383 575.281 407.694L566.67 655.694C566.296 666.463 557.458 675 546.682 675H533.318C522.542 675 513.704 666.463 513.33 655.694L504.719 407.694Z" fill="white" fill-opacity="0.5" shape-rendering="crispEdges"/>
</g>
<g filter="url(#filter1_bd_52_172)">
<path d="M511.604 722.249C512.978 712.361 521.432 705 531.414 705H548.586C558.568 705 567.022 712.361 568.396 722.249L572.84 754.249C574.51 766.273 565.17 777 553.03 777H526.97C514.83 777 505.49 766.273 507.16 754.249L511.604 722.249Z" fill="white" fill-opacity="0.5" shape-rendering="crispEdges"/>
</g>
<path d="M1054.02 585.151V680H1038.63V406.562H1110.41C1131.26 409.411 1148.98 418.127 1163.56 432.71C1180.99 450.142 1189.71 471.162 1189.71 495.771C1189.71 520.495 1180.99 541.572 1163.56 559.004C1146.13 576.436 1125.11 585.151 1100.5 585.151H1054.02ZM1054.02 422.114V569.6H1100.5C1120.78 569.6 1138.1 562.422 1152.45 548.066C1166.92 533.597 1174.16 516.165 1174.16 495.771C1174.16 475.378 1166.92 458.003 1152.45 443.647C1138.1 429.292 1120.78 422.114 1100.5 422.114H1054.02ZM1261.49 593.696C1248.38 586.632 1239.33 580.594 1234.31 575.581C1226.45 567.72 1222.52 558.263 1222.52 547.212C1222.52 536.047 1226.45 526.533 1234.31 518.672C1242.17 510.697 1251.63 506.709 1262.68 506.709C1273.85 506.709 1283.08 510.355 1290.37 517.646C1297.43 524.824 1300.96 532.97 1300.96 542.085V542.939L1287.63 548.237C1286.49 539.578 1283.76 533.084 1279.43 528.755C1275.22 524.425 1269.63 522.261 1262.68 522.261C1255.85 522.261 1249.98 524.71 1245.08 529.609C1240.18 534.395 1237.73 540.262 1237.73 547.212C1237.73 554.048 1240.18 559.915 1245.08 564.814C1247.93 567.663 1253.97 571.992 1263.2 577.803C1277.78 585.778 1288.15 592.842 1294.3 598.994C1303.98 608.792 1308.83 620.47 1308.83 634.028C1308.83 647.928 1303.98 659.777 1294.3 669.575C1284.61 679.259 1272.88 684.102 1259.09 684.102C1245.31 684.102 1233.57 679.259 1223.89 669.575C1214.2 659.777 1209.36 649.067 1209.36 637.446L1224.57 633.516C1224.57 643.542 1227.93 651.916 1234.66 658.638C1241.49 665.36 1249.64 668.721 1259.09 668.721C1268.55 668.721 1276.64 665.36 1283.36 658.638C1290.2 651.916 1293.62 643.713 1293.62 634.028C1293.62 624.572 1290.25 616.483 1283.53 609.761C1279.89 606.115 1272.54 600.76 1261.49 593.696ZM1412.73 664.961L1374.79 744.087H1359.75L1405.04 649.067L1339.59 512.178H1357.02L1412.73 632.49L1468.44 512.178H1485.71L1412.73 665.132V664.961ZM1668.22 639.668L1684.46 645.479C1681.5 649.58 1678.14 653.511 1674.38 657.271C1656.03 675.614 1633.87 684.785 1607.9 684.785C1582.03 684.785 1559.93 675.614 1541.59 657.271C1523.25 638.927 1514.07 616.768 1514.07 590.791C1514.07 564.928 1523.25 542.826 1541.59 524.482C1559.93 506.139 1582.03 496.968 1607.9 496.968C1633.87 496.968 1656.03 506.139 1674.38 524.482C1678.14 528.242 1681.5 532.116 1684.46 536.104L1668.22 542.085C1666.52 540.034 1664.69 537.983 1662.76 535.933C1647.6 520.894 1629.32 513.374 1607.9 513.374C1586.59 513.374 1568.36 520.951 1553.21 536.104C1538.06 551.143 1530.48 569.372 1530.48 590.791C1530.48 612.21 1538.06 630.496 1553.21 645.649C1568.36 660.802 1586.59 668.379 1607.9 668.379C1629.32 668.379 1647.6 660.802 1662.76 645.649C1664.69 643.713 1666.52 641.719 1668.22 639.668ZM1725.65 406.562H1741.03V520.894C1754.02 508.361 1769.62 502.095 1787.85 502.095C1807.68 502.095 1823.8 508.304 1836.22 520.723C1848.64 533.141 1855.02 548.807 1855.36 567.72V680H1839.98V569.087C1839.98 554.845 1834.79 542.712 1824.43 532.686C1814.17 522.546 1801.98 517.476 1787.85 517.476C1773.73 517.476 1761.54 522.432 1751.28 532.344C1746.72 536.901 1743.31 541.629 1741.03 546.528V680H1725.65V406.562ZM1902.53 571.138H2003.36V586.519H1902.53V571.138ZM2213.39 406.562H2228.94V603.096C2226.09 623.945 2217.38 641.662 2202.79 656.245C2185.36 673.677 2164.34 682.393 2139.73 682.393C2115.01 682.393 2093.93 673.677 2076.5 656.245C2059.07 638.813 2050.35 617.793 2050.35 593.184V406.562H2065.91V593.184C2065.91 613.464 2073.08 630.838 2087.44 645.308C2101.91 659.663 2119.34 666.841 2139.73 666.841C2160.13 666.841 2177.5 659.663 2191.86 645.308C2206.21 630.838 2213.39 613.464 2213.39 593.184V406.562ZM2280.38 512.178H2295.76V535.762C2298.61 531.888 2301.86 528.128 2305.5 524.482C2323.85 506.253 2345.95 497.139 2371.81 497.139C2397.79 497.139 2419.89 506.31 2438.12 524.653C2456.47 542.882 2465.64 564.985 2465.64 590.962C2465.64 616.825 2456.47 638.927 2438.12 657.271C2419.89 675.614 2397.79 684.785 2371.81 684.785C2345.95 684.785 2323.85 675.614 2305.5 657.271C2301.86 653.625 2298.61 649.865 2295.76 645.991V744.087H2280.38V512.178ZM2295.76 574.897V607.026C2298.73 621.724 2305.79 634.655 2316.96 645.82C2332.11 660.973 2350.39 668.55 2371.81 668.55C2393.23 668.55 2411.52 660.973 2426.67 645.82C2441.82 630.667 2449.4 612.381 2449.4 590.962C2449.4 569.543 2441.82 551.257 2426.67 536.104C2411.52 520.951 2393.23 513.374 2371.81 513.374C2350.39 513.374 2332.11 520.951 2316.96 536.104C2305.79 547.269 2298.73 560.2 2295.76 574.897Z" fill="#0984E3"/>
<defs>
<filter id="filter0_bd_52_172" x="490.706" y="373" width="110.587" height="328" filterUnits="userSpaceOnUse" color-interpolation-filters="sRGB">
<feFlood flood-opacity="0" result="BackgroundImageFix"/>
<feGaussianBlur in="BackgroundImageFix" stdDeviation="5"/>
<feComposite in2="SourceAlpha" operator="in" result="effect1_backgroundBlur_52_172"/>
<feColorMatrix in="SourceAlpha" type="matrix" values="0 0 0 0 0 0 0 0 0 0 0 0 0 0 0 0 0 0 127 0" result="hardAlpha"/>
<feOffset dx="6" dy="6"/>
<feGaussianBlur stdDeviation="10"/>
<feComposite in2="hardAlpha" operator="out"/>
<feColorMatrix type="matrix" values="0 0 0 0 0 0 0 0 0 0 0 0 0 0 0 0 0 0 0.05 0"/>
<feBlend mode="normal" in2="effect1_backgroundBlur_52_172" result="effect2_dropShadow_52_172"/>
<feBlend mode="normal" in="SourceGraphic" in2="effect2_dropShadow_52_172" result="shape"/>
</filter>
<filter id="filter1_bd_52_172" x="492.966" y="691" width="106.068" height="112" filterUnits="userSpaceOnUse" color-interpolation-filters="sRGB">
<feFlood flood-opacity="0" result="BackgroundImageFix"/>
<feGaussianBlur in="BackgroundImageFix" stdDeviation="5"/>
<feComposite in2="SourceAlpha" operator="in" result="effect1_backgroundBlur_52_172"/>
<feColorMatrix in="SourceAlpha" type="matrix" values="0 0 0 0 0 0 0 0 0 0 0 0 0 0 0 0 0 0 127 0" result="hardAlpha"/>
<feOffset dx="6" dy="6"/>
<feGaussianBlur stdDeviation="10"/>
<feComposite in2="hardAlpha" operator="out"/>
<feColorMatrix type="matrix" values="0 0 0 0 0 0 0 0 0 0 0 0 0 0 0 0 0 0 0.05 0"/>
<feBlend mode="normal" in2="effect1_backgroundBlur_52_172" result="effect2_dropShadow_52_172"/>
<feBlend mode="normal" in="SourceGraphic" in2="effect2_dropShadow_52_172" result="shape"/>
</filter>
<linearGradient id="paint0_linear_52_172" x1="240" y1="240" x2="840" y2="840" gradientUnits="userSpaceOnUse">
<stop stop-color="#BFFFF4"/>
<stop offset="1" stop-color="#0984E3"/>
</linearGradient>
</defs>
</svg>
