<svg width="160" height="146" viewBox="0 0 160 146" fill="none" xmlns="http://www.w3.org/2000/svg">
<path d="M95.6966 81.1849L80 85.6664L64.3033 81.1849L53.0914 74.4627L46.3643 58.7775L50.849 40.8516L64.3033 18.4442L80 0.51828L95.6966 18.4442L109.151 40.8516L113.636 58.7775L106.909 74.4627L95.6966 81.1849Z" fill="url(#paint0_linear_295_713)"/>
<path d="M82.2425 27.4072L64.3035 18.4442L82.2425 9.48123L95.6968 18.4442L82.2425 27.4072Z" fill="white" fill-opacity="0.2"/>
<path d="M82.2425 9.48124L80.0001 0.51828L64.3035 18.4442L82.2425 9.48124Z" fill="white" fill-opacity="0.1"/>
<path d="M95.6967 18.4442L80 0.51828L82.2424 9.48124L95.6967 18.4442Z" fill="white" fill-opacity="0.3"/>
<path d="M82.2424 27.4072L50.8491 40.8516L64.3595 18.4442L82.2424 27.4072Z" fill="white" fill-opacity="0.05"/>
<path d="M95.6968 54.2961L82.2425 27.4072L64.3035 63.259H82.2425L95.6968 54.2961Z" fill="white" fill-opacity="0.3"/>
<path d="M46.3643 58.7775L50.849 40.8516L82.2423 27.4072L46.3643 58.7775Z" fill="white" fill-opacity="0.21"/>
<path d="M109.151 40.8516L95.6967 36.3701L82.2424 27.4072L95.6967 18.4442L109.151 40.8516Z" fill="white" fill-opacity="0.4"/>
<path d="M95.6967 36.3701L82.2424 27.4072L95.6967 54.2961V36.3701Z" fill="white" fill-opacity="0.5"/>
<path d="M109.151 40.8516L95.6968 36.3701V54.296L113.636 58.7775L109.151 40.8516Z" fill="white" fill-opacity="0.45"/>
<path d="M80 85.6664L82.2424 76.7035L95.6967 81.1849L80 85.6664Z" fill="white" fill-opacity="0.16"/>
<path d="M100.181 72.222L82.2424 76.7035L95.6967 81.1849L106.909 74.4627L100.181 72.222Z" fill="white" fill-opacity="0.1"/>
<path d="M100.182 72.222L95.6968 54.2961L113.636 58.7775L106.909 74.4627L100.182 72.222Z" fill="white" fill-opacity="0.3"/>
<path d="M64.3033 63.259L46.3643 58.7775L82.2423 27.4072L64.3033 63.259Z" fill="white" fill-opacity="0.15"/>
<path d="M53.0914 74.4627L64.3033 63.259L46.3643 58.7775L53.0914 74.4627Z" fill="white" fill-opacity="0.2"/>
<path d="M82.2425 76.7035L73.273 72.222L64.3035 81.1849L80.0001 85.6664L82.2425 76.7035Z" fill="white" fill-opacity="0.2"/>
<path d="M73.273 72.222L64.3035 63.259L53.0916 74.4627L64.3035 81.185L73.273 72.222Z" fill="white" fill-opacity="0.1"/>
<path d="M73.273 72.222L82.2425 76.7035V69.9813V63.259H64.3035L73.273 72.222Z" fill="white" fill-opacity="0.35"/>
<path d="M95.6967 54.2961L82.2424 63.259V76.7035L100.181 72.222L95.6967 54.2961Z" fill="white" fill-opacity="0.21"/>
<g filter="url(#filter0_d_295_713)">
<path d="M76.0443 28.2692C76.0003 27.0019 77.0164 25.9507 78.2853 25.9507H81.7148C82.9836 25.9507 83.9998 27.0019 83.9557 28.2692L82.9902 56.0544C82.9483 57.2609 81.9574 58.2174 80.7492 58.2174H79.2508C78.0426 58.2174 77.0517 57.2609 77.0098 56.0544L76.0443 28.2692Z" fill="white" fill-opacity="0.5"/>
</g>
<g filter="url(#filter1_d_295_713)">
<path d="M76.8164 63.511C76.9704 62.4032 77.9183 61.5785 79.0374 61.5785H80.9627C82.0819 61.5785 83.0298 62.4032 83.1838 63.511L83.6821 67.0962C83.8693 68.4433 82.8221 69.6451 81.461 69.6451H78.5392C77.1781 69.6451 76.1309 68.4433 76.3181 67.0962L76.8164 63.511Z" fill="white" fill-opacity="0.5"/>
</g>
<path d="M1.72795 127.675V138.302H0.00244141V107.666H8.05035C10.388 107.986 12.3748 108.962 14.0095 110.596C15.9637 112.549 16.9414 114.904 16.9414 117.661C16.9414 120.431 15.9637 122.793 14.0095 124.746C12.0552 126.699 9.69849 127.675 6.93924 127.675H1.72795ZM1.72795 109.409V125.933H6.93924C9.21302 125.933 11.1549 125.129 12.7638 123.52C14.3862 121.899 15.1979 119.946 15.1979 117.661C15.1979 115.376 14.3862 113.43 12.7638 111.821C11.1549 110.213 9.21302 109.409 6.93924 109.409H1.72795ZM24.9893 128.632C23.5194 127.841 22.5047 127.164 21.9419 126.603C21.0606 125.722 20.62 124.663 20.62 123.424C20.62 122.174 21.0606 121.108 21.9419 120.227C22.8232 119.333 23.8838 118.887 25.1227 118.887C26.3751 118.887 27.4099 119.295 28.2273 120.112C29.0188 120.916 29.4146 121.829 29.4146 122.85V122.946L27.9201 123.539C27.7923 122.569 27.4862 121.842 27.0007 121.357C26.5287 120.871 25.9019 120.629 25.1227 120.629C24.3569 120.629 23.6988 120.903 23.1494 121.452C22.6 121.988 22.3253 122.646 22.3253 123.424C22.3253 124.19 22.6 124.848 23.1494 125.397C23.4689 125.716 24.1461 126.201 25.181 126.852C26.8157 127.745 27.9784 128.537 28.6679 129.226C29.7532 130.324 30.297 131.632 30.297 133.151C30.297 134.708 29.7532 136.036 28.6679 137.134C27.5815 138.219 26.2663 138.761 24.7202 138.761C23.1752 138.761 21.8589 138.219 20.7736 137.134C19.6872 136.036 19.1445 134.836 19.1445 133.534L20.8498 133.094C20.8498 134.217 21.2266 135.155 21.9811 135.908C22.7469 136.661 23.6607 137.038 24.7202 137.038C25.7808 137.038 26.6879 136.661 27.4413 135.908C28.2082 135.155 28.5917 134.236 28.5917 133.151C28.5917 132.092 28.2138 131.185 27.4604 130.432C27.0523 130.024 26.2282 129.424 24.9893 128.632ZM41.9462 136.617L37.6924 145.482H36.0061L41.084 134.836L33.7458 119.499H35.7L41.9462 132.979L48.1923 119.499H50.1286L41.9462 136.636V136.617ZM70.5915 133.783L72.4123 134.434C72.0804 134.893 71.7037 135.334 71.2821 135.755C69.2247 137.81 66.7402 138.838 63.8284 138.838C60.9279 138.838 58.4501 137.81 56.3938 135.755C54.3376 133.7 53.3083 131.217 53.3083 128.307C53.3083 125.409 54.3376 122.933 56.3938 120.878C58.4501 118.823 60.9279 117.795 63.8284 117.795C66.7402 117.795 69.2247 118.823 71.2821 120.878C71.7037 121.299 72.0804 121.733 72.4123 122.18L70.5915 122.85C70.4008 122.62 70.1957 122.39 69.9793 122.161C68.2796 120.476 66.23 119.633 63.8284 119.633C61.4392 119.633 59.3952 120.482 57.6966 122.18C55.998 123.865 55.1482 125.907 55.1482 128.307C55.1482 130.707 55.998 132.755 57.6966 134.453C59.3952 136.151 61.4392 137 63.8284 137C66.23 137 68.2796 136.151 69.9793 134.453C70.1957 134.236 70.4008 134.013 70.5915 133.783ZM77.0304 107.666H78.7548V120.476C80.2113 119.072 81.9603 118.37 84.0042 118.37C86.2276 118.37 88.0349 119.065 89.4274 120.457C90.82 121.848 91.5353 123.603 91.5734 125.722V138.302H89.849V125.875C89.849 124.28 89.2671 122.92 88.1056 121.797C86.9552 120.661 85.5885 120.093 84.0042 120.093C82.4211 120.093 81.0544 120.648 79.9041 121.759C79.3928 122.269 79.0105 122.799 78.7548 123.348V138.302H77.0304V107.666ZM96.8621 126.105H108.167V127.828H96.8621V126.105ZM131.715 107.666H133.459V129.686C133.139 132.021 132.163 134.006 130.527 135.64C128.573 137.593 126.216 138.57 123.457 138.57C120.685 138.57 118.322 137.593 116.367 135.64C114.413 133.687 113.436 131.332 113.436 128.575V107.666H115.18V128.575C115.18 130.847 115.984 132.794 117.594 134.415C119.216 136.023 121.171 136.827 123.457 136.827C125.744 136.827 127.691 136.023 129.301 134.415C130.91 132.794 131.715 130.847 131.715 128.575V107.666ZM139.226 119.499H140.951V122.142C141.27 121.708 141.635 121.286 142.043 120.878C144.1 118.836 146.578 117.814 149.477 117.814C152.39 117.814 154.868 118.842 156.912 120.897C158.969 122.939 159.997 125.416 159.997 128.326C159.997 131.224 158.969 133.7 156.912 135.755C154.868 137.81 152.39 138.838 149.477 138.838C146.578 138.838 144.1 137.81 142.043 135.755C141.635 135.347 141.27 134.925 140.951 134.491V145.482H139.226V119.499ZM140.951 126.526V130.126C141.284 131.773 142.075 133.221 143.328 134.472C145.026 136.17 147.076 137.019 149.477 137.019C151.879 137.019 153.93 136.17 155.628 134.472C157.327 132.775 158.177 130.726 158.177 128.326C158.177 125.926 157.327 123.878 155.628 122.18C153.93 120.482 151.879 119.633 149.477 119.633C147.076 119.633 145.026 120.482 143.328 122.18C142.075 123.431 141.284 124.88 140.951 126.526Z" fill="#0984E3"/>
<defs>
<filter id="filter0_d_295_713" x="62.043" y="11.9507" width="47.9141" height="72.2667" filterUnits="userSpaceOnUse" color-interpolation-filters="sRGB">
<feFlood flood-opacity="0" result="BackgroundImageFix"/>
<feColorMatrix in="SourceAlpha" type="matrix" values="0 0 0 0 0 0 0 0 0 0 0 0 0 0 0 0 0 0 127 0" result="hardAlpha"/>
<feOffset dx="6" dy="6"/>
<feGaussianBlur stdDeviation="10"/>
<feComposite in2="hardAlpha" operator="out"/>
<feColorMatrix type="matrix" values="0 0 0 0 0 0 0 0 0 0 0 0 0 0 0 0 0 0 0.05 0"/>
<feBlend mode="normal" in2="BackgroundImageFix" result="effect1_dropShadow_295_713"/>
<feBlend mode="normal" in="SourceGraphic" in2="effect1_dropShadow_295_713" result="shape"/>
</filter>
<filter id="filter1_d_295_713" x="62.2964" y="47.5785" width="47.4075" height="48.0667" filterUnits="userSpaceOnUse" color-interpolation-filters="sRGB">
<feFlood flood-opacity="0" result="BackgroundImageFix"/>
<feColorMatrix in="SourceAlpha" type="matrix" values="0 0 0 0 0 0 0 0 0 0 0 0 0 0 0 0 0 0 127 0" result="hardAlpha"/>
<feOffset dx="6" dy="6"/>
<feGaussianBlur stdDeviation="10"/>
<feComposite in2="hardAlpha" operator="out"/>
<feColorMatrix type="matrix" values="0 0 0 0 0 0 0 0 0 0 0 0 0 0 0 0 0 0 0.05 0"/>
<feBlend mode="normal" in2="BackgroundImageFix" result="effect1_dropShadow_295_713"/>
<feBlend mode="normal" in="SourceGraphic" in2="effect1_dropShadow_295_713" result="shape"/>
</filter>
<linearGradient id="paint0_linear_295_713" x1="46.3643" y1="9.48124" x2="113.586" y2="76.7526" gradientUnits="userSpaceOnUse">
<stop stop-color="#BFFFF4"/>
<stop offset="1" stop-color="#0984E3"/>
</linearGradient>
</defs>
</svg>
