<svg width="29" height="29" viewBox="0 0 29 29" fill="none" xmlns="http://www.w3.org/2000/svg">
<path d="M25.9397 12.6968H24.9999V12.6483H14.4999V17.315H21.0933C20.1314 20.0316 17.5467 21.9817 14.4999 21.9817C10.6342 21.9817 7.49992 18.8474 7.49992 14.9817C7.49992 11.1159 10.6342 7.98167 14.4999 7.98167C16.2843 7.98167 17.9078 8.65484 19.1438 9.75442L22.4438 6.4545C20.3601 4.51259 17.5729 3.315 14.4999 3.315C8.057 3.315 2.83325 8.53875 2.83325 14.9817C2.83325 21.4246 8.057 26.6483 14.4999 26.6483C20.9428 26.6483 26.1666 21.4246 26.1666 14.9817C26.1666 14.1994 26.0861 13.4358 25.9397 12.6968Z" fill="#FBC02D"/>
<path d="M4.17847 9.55142L8.01155 12.3625C9.04872 9.79467 11.5605 7.98167 14.5 7.98167C16.2844 7.98167 17.9078 8.65484 19.1439 9.75442L22.4438 6.4545C20.3601 4.51259 17.573 3.315 14.5 3.315C10.0188 3.315 6.13263 5.84492 4.17847 9.55142Z" fill="#E53935"/>
<path d="M14.5 26.6483C17.5135 26.6483 20.2517 25.4951 22.3219 23.6197L18.7111 20.5642C17.5398 21.4514 16.0838 21.9817 14.5 21.9817C11.4655 21.9817 8.88894 20.0467 7.91827 17.3465L4.11377 20.2777C6.0446 24.056 9.96577 26.6483 14.5 26.6483Z" fill="#4CAF50"/>
<path d="M25.9397 12.6968L25.9304 12.6484H25H14.5V17.315H21.0934C20.6314 18.62 19.792 19.7452 18.7093 20.5648L18.7111 20.5636L22.3219 23.6191C22.0664 23.8513 26.1667 20.815 26.1667 14.9817C26.1667 14.1995 26.0862 13.4359 25.9397 12.6968Z" fill="#1565C0"/>
</svg>
